name C:\Users\u0101727\Documents\MyRepositories\upper-imu-dc\Results\main_tracking\Case_10\FLX01_linearAccelerations_bodyFrame.mot
datacolumns 4
datarows 129
range 3.51000000 4.79000000
endheader 
time	radius_imu_x	radius_imu_y	radius_imu_z	
          3.51000000	         -0.66912027	         -9.68056757	          1.48590790	
          3.52000000	         -0.75308126	         -9.66814324	          1.51037162	
          3.53000000	         -0.81613435	         -9.65314938	          1.55394111	
          3.54000000	         -0.85372761	         -9.63425652	          1.61495994	
          3.55000000	         -0.86635735	         -9.61044875	          1.69059841	
          3.56000000	         -0.86079439	         -9.58253064	          1.77673702	
          3.57000000	         -0.84728232	         -9.55357293	          1.86853254	
          3.58000000	         -0.83532687	         -9.52796704	          1.96117717	
          3.59000000	         -0.83077708	         -9.50984023	          2.05029889	
          3.60000000	         -0.83507036	         -9.50180496	          2.13186290	
          3.61000000	         -0.84519843	         -9.50441852	          2.20216308	
          3.62000000	         -0.85325768	         -9.51622125	          2.25832678	
          3.63000000	         -0.84703856	         -9.53422443	          2.29899576	
          3.64000000	         -0.81312210	         -9.55468417	          2.32435722	
          3.65000000	         -0.74108785	         -9.57378771	          2.33556388	
          3.66000000	         -0.62639995	         -9.58802303	          2.33407451	
          3.67000000	         -0.47168201	         -9.59444789	          2.32104885	
          3.68000000	         -0.28746581	         -9.59118340	          2.29668107	
          3.69000000	         -0.09270658	         -9.57812782	          2.25960344	
          3.70000000	          0.08730076	         -9.55735934	          2.20713140	
          3.71000000	          0.22938292	         -9.53247017	          2.13711300	
          3.72000000	          0.32256078	         -9.50825457	          2.05079426	
          3.73000000	          0.37243721	         -9.48962555	          1.95372835	
          3.74000000	          0.39774621	         -9.48051490	          1.85443629	
          3.75000000	          0.42224664	         -9.48380940	          1.76249729	
          3.76000000	          0.46720586	         -9.50001300	          1.68628967	
          3.77000000	          0.54530689	         -9.52652432	          1.63154146	
          3.78000000	          0.65739266	         -9.55793295	          1.60073745	
          3.79000000	          0.79209505	         -9.58740617	          1.59317847	
          3.80000000	          0.92858576	         -9.60859261	          1.60556405	
          3.81000000	          1.04220747	         -9.61709000	          1.63306431	
          3.82000000	          1.11135398	         -9.61086625	          1.67074913	
          3.83000000	          1.12313561	         -9.58975188	          1.71500401	
          3.84000000	          1.07606538	         -9.55465695	          1.76439429	
          3.85000000	          0.97950963	         -9.50705653	          1.81961638	
          3.86000000	          0.85071973	         -9.44891886	          1.88261923	
          3.87000000	          0.71035141	         -9.38292926	          1.95527665	
          3.88000000	          0.57785256	         -9.31276688	          2.03817918	
          3.89000000	          0.46794570	         -9.24324663	          2.12987641	
          3.90000000	          0.38887187	         -9.18011826	          2.22667437	
          3.91000000	          0.34219847	         -9.12930037	          2.32298748	
          3.92000000	          0.32367249	         -9.09548446	          2.41217800	
          3.93000000	          0.32474924	         -9.08044100	          2.48763023	
          3.94000000	          0.33469033	         -9.08177482	          2.54368195	
          3.95000000	          0.34322824	         -9.09291084	          2.57619218	
          3.96000000	          0.34338086	         -9.10458973	          2.58278709	
          3.97000000	          0.33334416	         -9.10737929	          2.56290132	
          3.98000000	          0.31651050	         -9.09413646	          2.51767876	
          3.99000000	          0.29961974	         -9.06142847	          2.44980709	
          4.00000000	          0.28989692	         -9.00958770	          2.36338999	
          4.01000000	          0.29225527	         -8.94181504	          2.26388711	
          4.02000000	          0.30743294	         -8.86301950	          2.15802822	
          4.03000000	          0.33151957	         -8.77884384	          2.05352051	
          4.04000000	          0.35659173	         -8.69495474	          1.95840506	
          4.05000000	          0.37147410	         -8.61647129	          1.88016102	
          4.06000000	          0.36200532	         -8.54741238	          1.82488464	
          4.07000000	          0.31138577	         -8.49023383	          1.79678092	
          4.08000000	          0.20165161	         -8.44568939	          1.79792155	
          4.09000000	          0.01670761	         -8.41308345	          1.82816334	
          4.10000000	         -0.25379499	         -8.39055031	          1.88520043	
          4.11000000	         -0.61121415	         -8.37503458	          1.96477967	
          4.12000000	         -1.04648028	         -8.36215037	          2.06115551	
          4.13000000	         -1.54039293	         -8.34644316	          2.16785588	
          4.14000000	         -2.06495963	         -8.32231931	          2.27866766	
          4.15000000	         -2.58550299	         -8.28534121	          2.38856265	
          4.16000000	         -3.06380852	         -8.23328350	          2.49431942	
          4.17000000	         -3.46256716	         -8.16644058	          2.59476176	
          4.18000000	         -3.75080716	         -8.08706296	          2.69059602	
          4.19000000	         -3.90931443	         -7.99840470	          2.78380598	
          4.20000000	         -3.93477415	         -7.90412316	          2.87662109	
          4.21000000	         -3.84217767	         -7.80814496	          2.97009479	
          4.22000000	         -3.66591811	         -7.71432725	          3.06234432	
          4.23000000	         -3.45886070	         -7.62536569	          3.14704541	
          4.24000000	         -3.28532109	         -7.54122328	          3.21392016	
          4.25000000	         -3.20403809	         -7.45815455	          3.25289622	
          4.26000000	         -3.24793041	         -7.36969474	          3.26031256	
          4.27000000	         -3.41588635	         -7.26983624	          3.24251356	
          4.28000000	         -3.68112781	         -7.15644616	          3.21428203	
          4.29000000	         -4.00560817	         -7.03234894	          3.19391670	
          4.30000000	         -4.34994619	         -6.90363319	          3.19808037	
          4.31000000	         -4.67639547	         -6.77706627	          3.23829984	
          4.32000000	         -4.94741040	         -6.65841392	          3.31971769	
          4.33000000	         -5.12410727	         -6.55186265	          3.44197151	
          4.34000000	         -5.16910338	         -6.45968770	          3.60147326	
          4.35000000	         -5.05656261	         -6.38154480	          3.79358452	
          4.36000000	         -4.78748887	         -6.31367841	          4.01290688	
          4.37000000	         -4.40195941	         -6.24887636	          4.25111965	
          4.38000000	         -3.97620900	         -6.17762102	          4.49455704	
          4.39000000	         -3.59970948	         -6.09033595	          4.72506174	
          4.40000000	         -3.34778769	         -5.98057197	          4.92417543	
          4.41000000	         -3.27076526	         -5.84834830	          5.07714933	
          4.42000000	         -3.39499243	         -5.70150639	          5.17573680	
          4.43000000	         -3.71523477	         -5.55325164	          5.22148362	
          4.44000000	         -4.17982469	         -5.41677994	          5.22787940	
          4.45000000	         -4.69233681	         -5.30015066	          5.21710432	
          4.46000000	         -5.13981676	         -5.20393421	          5.21177103	
          4.47000000	         -5.43105408	         -5.12177546	          5.22720704	
          4.48000000	         -5.52220988	         -5.04247646	          5.26853860	
          4.49000000	         -5.41878724	         -4.95246804	          5.33243357	
          4.50000000	         -5.16128983	         -4.83881212	          5.41030187	
          4.51000000	         -4.81145385	         -4.69325633	          5.48996178	
          4.52000000	         -4.44192528	         -4.51607792	          5.55659584	
          4.53000000	         -4.11962441	         -4.31687941	          5.59601469	
          4.54000000	         -3.88790647	         -4.11105050	          5.59959061	
          4.55000000	         -3.75997117	         -3.91350997	          5.56756667	
          4.56000000	         -3.71887666	         -3.73271072	          5.50993875	
          4.57000000	         -3.72218353	         -3.56747849	          5.44459526	
          4.58000000	         -3.72149645	         -3.40822115	          5.39184980	
          4.59000000	         -3.68999704	         -3.24185055	          5.36792585	
          4.60000000	         -3.63723520	         -3.05766821	          5.38155824	
          4.61000000	         -3.60174433	         -2.85125277	          5.43510708	
          4.62000000	         -3.62556737	         -2.62492939	          5.52889175	
          4.63000000	         -3.72842617	         -2.38575797	          5.66517853	
          4.64000000	         -3.90378702	         -2.14265915	          5.84766843	
          4.65000000	         -4.13480356	         -1.90397628	          6.07732878	
          4.66000000	         -4.40563256	         -1.67603460	          6.34994883	
          4.67000000	         -4.69917082	         -1.46243668	          6.65755211	
          4.68000000	         -4.99355146	         -1.26372384	          6.99095981	
          4.69000000	         -5.26635602	         -1.07734091	          7.34075136	
          4.70000000	         -5.50155321	         -0.89781506	          7.69671976	
          4.71000000	         -5.68811345	         -0.71737194	          8.04793793	
          4.72000000	         -5.81203825	         -0.52757591	          8.38401830	
          4.73000000	         -5.85499120	         -0.32230651	          8.69608088	
          4.74000000	         -5.80531845	         -0.10118845	          8.97645578	
          4.75000000	         -5.67281115	          0.12855683	          9.21789550	
          4.76000000	         -5.49213619	          0.35324480	          9.41387340	
          4.77000000	         -5.31532573	          0.55646768	          9.55950410	
          4.78000000	         -5.20134335	          0.72402794	          9.65208305	
          4.79000000	         -5.19582213	          0.84857778	          9.69279752	
